<svg class="main-svg" xmlns="http://www.w3.org/2000/svg" xmlns:xlink="http://www.w3.org/1999/xlink" width="1875" height="1000" style="" viewBox="0 0 1875 1000"><rect x="0" y="0" width="1875" height="1000" style="fill: rgb(255, 255, 255); fill-opacity: 1;"/><defs id="defs-3e7e5b"><g class="clips"/><g class="gradients"/><g class="patterns"/></defs><g class="bglayer"/><g class="layer-below"><g class="imagelayer"/><g class="shapelayer"/></g><g class="cartesianlayer"/><g class="polarlayer"/><g class="smithlayer"/><g class="ternarylayer"/><g class="geolayer"/><g class="funnelarealayer"/><g class="pielayer"/><g class="iciclelayer"/><g class="treemaplayer"/><g class="sunburstlayer"/><g class="glimages"/><g class="sankey" transform="translate(80,100)matrix(1 0 0 1 0 0)" style="box-sizing: content-box; position: absolute; left: 0px; shape-rendering: geometricprecision; pointer-events: none;"><g class="sankey-links" style="fill: none;"><path class="sankey-link" d="M11.715,0C172.3575,0 172.3575,0 333,0L333,140.7514172638785C172.3575,140.7514172638785 172.3575,140.7514172638785 11.715,140.7514172638785Z" style="stroke: rgb(68, 68, 68); stroke-opacity: 1; fill: rgb(68, 68, 68); fill-opacity: 0.6; stroke-width: 0; opacity: 1;"/><path class="sankey-link" d="M11.715,140.7514172638785C172.3575,140.7514172638785 172.3575,155.7514172638784 333,155.7514172638784L333,262.17590116590003C172.3575,262.17590116590003 172.3575,247.17590116590011 11.715,247.17590116590011Z" style="stroke: rgb(68, 68, 68); stroke-opacity: 1; fill: rgb(68, 68, 68); fill-opacity: 0.6; stroke-width: 0; opacity: 1;"/><path class="sankey-link" d="M11.715,247.1759011659001C172.3575,247.1759011659001 172.3575,277.1759011659006 333,277.1759011659006L333,376.67638250080273C172.3575,376.67638250080273 172.3575,346.6763825008022 11.715,346.6763825008022Z" style="stroke: rgb(68, 68, 68); stroke-opacity: 1; fill: rgb(68, 68, 68); fill-opacity: 0.6; stroke-width: 0; opacity: 1;"/><path class="sankey-link" d="M11.715,346.6763825008022C172.3575,346.6763825008022 172.3575,391.6763825008024 333,391.6763825008024L333,487.0737512033374C172.3575,487.0737512033374 172.3575,442.0737512033372 11.715,442.0737512033372Z" style="stroke: rgb(68, 68, 68); stroke-opacity: 1; fill: rgb(68, 68, 68); fill-opacity: 0.6; stroke-width: 0; opacity: 1;"/><path class="sankey-link" d="M11.715,442.0737512033372C172.3575,442.0737512033372 172.3575,502.0737512033378 333,502.0737512033378L333,588.6054658252225C172.3575,588.6054658252225 172.3575,528.6054658252219 11.715,528.6054658252219Z" style="stroke: rgb(68, 68, 68); stroke-opacity: 1; fill: rgb(68, 68, 68); fill-opacity: 0.6; stroke-width: 0; opacity: 1;"/><path class="sankey-link" d="M11.715,528.6054658252219C172.3575,528.6054658252219 172.3575,603.6054658252226 333,603.6054658252226L333,687.6826398545306C172.3575,687.6826398545306 172.3575,612.68263985453 11.715,612.68263985453Z" style="stroke: rgb(68, 68, 68); stroke-opacity: 1; fill: rgb(68, 68, 68); fill-opacity: 0.6; stroke-width: 0; opacity: 1;"/><path class="sankey-link" d="M11.715,612.6826398545298C172.3575,612.6826398545298 172.3575,709.6015752914748 333,709.6015752914748L333,757.2636247085247C172.3575,757.2636247085247 172.3575,660.3446892715798 11.715,660.3446892715798Z" style="stroke: rgb(68, 68, 68); stroke-opacity: 1; fill: rgb(68, 68, 68); fill-opacity: 0.6; stroke-width: 0; opacity: 1;"/><path class="sankey-link" d="M11.715,660.3446892715798C172.3575,660.3446892715798 172.3575,779.9922913466678 333,779.9922913466678L333,800.9841086533315C172.3575,800.9841086533315 172.3575,681.3365065782435 11.715,681.3365065782435Z" style="stroke: rgb(68, 68, 68); stroke-opacity: 1; fill: rgb(68, 68, 68); fill-opacity: 0.6; stroke-width: 0; opacity: 1;"/><path class="sankey-link" d="M11.715,681.3365065782436C172.3575,681.3365065782436 172.3575,815.984108653332 333,815.984108653332L333,819.4644274040006C172.3575,819.4644274040006 172.3575,684.8168253289123 11.715,684.8168253289123Z" style="stroke: rgb(68, 68, 68); stroke-opacity: 1; fill: rgb(68, 68, 68); fill-opacity: 0.6; stroke-width: 0; opacity: 1;"/><path class="sankey-link" d="M11.715,684.8168253289122C172.3575,684.8168253289122 172.3575,834.4644274040006 333,834.4644274040006L333,834.6476020750883C172.3575,834.6476020750883 172.3575,684.9999999999999 11.715,684.9999999999999Z" style="stroke: rgb(68, 68, 68); stroke-opacity: 0.6; fill: rgb(68, 68, 68); fill-opacity: 0.6; stroke-width: 1; opacity: 1;"/><path class="sankey-link" d="M353,0C514.5,0 514.5,314.7421278853352 676,314.7421278853352L676,326.09895749277985C514.5,326.09895749277985 514.5,11.356829607444647 353,11.356829607444647Z" style="stroke: rgb(68, 68, 68); stroke-opacity: 1; fill: rgb(136, 34, 85); fill-opacity: 0.6; stroke-width: 0; opacity: 1;"/><path class="sankey-link" d="M353,11.356829607444649C514.5,11.356829607444649 514.5,431.92012788533526 676,431.92012788533526L676,434.4113034121296C514.5,434.4113034121296 514.5,13.848005134238957 353,13.848005134238957Z" style="stroke: rgb(68, 68, 68); stroke-opacity: 1; fill: rgb(136, 34, 85); fill-opacity: 0.6; stroke-width: 0; opacity: 1;"/><path class="sankey-link" d="M353,13.848005134238958C514.5,13.848005134238958 514.5,552.6517165044387 676,552.6517165044387L676,559.3559094662527C514.5,559.3559094662527 514.5,20.552198096053058 353,20.552198096053058Z" style="stroke: rgb(68, 68, 68); stroke-opacity: 1; fill: rgb(136, 34, 85); fill-opacity: 0.6; stroke-width: 0; opacity: 1;"/><path class="sankey-link" d="M353,20.552198096053054C514.5,20.552198096053054 514.5,674.3500356187827 676,674.3500356187827L676,691.4219149641673C514.5,691.4219149641673 514.5,37.624077441437585 353,37.624077441437585Z" style="stroke: rgb(68, 68, 68); stroke-opacity: 1; fill: rgb(136, 34, 85); fill-opacity: 0.6; stroke-width: 0; opacity: 1;"/><path class="sankey-link" d="M353,37.62407744143759C514.5,37.62407744143759 514.5,771.1283284843299 676,771.1283284843299L676,776.2938542090063C514.5,776.2938542090063 514.5,42.789603166114034 353,42.789603166114034Z" style="stroke: rgb(68, 68, 68); stroke-opacity: 1; fill: rgb(136, 34, 85); fill-opacity: 0.6; stroke-width: 0; opacity: 1;"/><path class="sankey-link" d="M353,42.78960316611403C514.5,42.78960316611403 514.5,813.7460056904481 676,813.7460056904481L676,813.8192755588832C514.5,813.8192755588832 514.5,42.86287303454916 353,42.86287303454916Z" style="stroke: rgb(136, 34, 85); stroke-opacity: 0.6; fill: rgb(136, 34, 85); fill-opacity: 0.6; stroke-width: 1; opacity: 1;"/><path class="sankey-link" d="M353,155.7514172638784C514.5,155.7514172638784 514.5,63.965758048989194 676,63.965758048989194L676,170.3902419510108C514.5,170.3902419510108 514.5,262.17590116590003 353,262.17590116590003Z" style="stroke: rgb(68, 68, 68); stroke-opacity: 1; fill: rgb(17, 119, 51); fill-opacity: 0.6; stroke-width: 0; opacity: 1;"/><path class="sankey-link" d="M353,277.1759011659006C514.5,277.1759011659006 514.5,194.82295933254892 676,194.82295933254892L676,294.32344066745105C514.5,294.32344066745105 514.5,376.67638250080273 353,376.67638250080273Z" style="stroke: rgb(68, 68, 68); stroke-opacity: 1; fill: rgb(204, 102, 119); fill-opacity: 0.6; stroke-width: 0; opacity: 1;"/><path class="sankey-link" d="M353,391.6763825008024C514.5,391.6763825008024 514.5,434.4113034121296 676,434.4113034121296L676,529.8086721146647C514.5,529.8086721146647 514.5,487.0737512033374 353,487.0737512033374Z" style="stroke: rgb(68, 68, 68); stroke-opacity: 1; fill: rgb(221, 204, 119); fill-opacity: 0.6; stroke-width: 0; opacity: 1;"/><path class="sankey-link" d="M353,502.0737512033378C514.5,502.0737512033378 514.5,326.09895749277985 676,326.09895749277985L676,412.63067211466455C514.5,412.63067211466455 514.5,588.6054658252225 353,588.6054658252225Z" style="stroke: rgb(68, 68, 68); stroke-opacity: 1; fill: rgb(136, 204, 238); fill-opacity: 0.6; stroke-width: 0; opacity: 1;"/><path class="sankey-link" d="M353,603.6054658252226C514.5,603.6054658252226 514.5,559.3559094662528 676,559.3559094662528L676,643.4330834955608C514.5,643.4330834955608 514.5,687.6826398545306 353,687.6826398545306Z" style="stroke: rgb(68, 68, 68); stroke-opacity: 1; fill: rgb(68, 170, 153); fill-opacity: 0.6; stroke-width: 0; opacity: 1;"/><path class="sankey-link" d="M353,709.6015752914748C514.5,709.6015752914748 514.5,691.4219149641673 676,691.4219149641673L676,739.0839643812172C514.5,739.0839643812172 514.5,757.2636247085247 353,757.2636247085247Z" style="stroke: rgb(68, 68, 68); stroke-opacity: 1; fill: rgb(170, 68, 153); fill-opacity: 0.6; stroke-width: 0; opacity: 1;"/><path class="sankey-link" d="M353,779.9922913466678C514.5,779.9922913466678 514.5,776.2938542090063 676,776.2938542090063L676,797.2856715156701C514.5,797.2856715156701 514.5,800.9841086533315 353,800.9841086533315Z" style="stroke: rgb(68, 68, 68); stroke-opacity: 1; fill: rgb(51, 34, 136); fill-opacity: 0.6; stroke-width: 0; opacity: 1;"/><path class="sankey-link" d="M353,815.984108653332C514.5,815.984108653332 514.5,813.8192755588832 676,813.8192755588832L676,817.2995943095518C514.5,817.2995943095518 514.5,819.4644274040006 353,819.4644274040006Z" style="stroke: rgb(68, 68, 68); stroke-opacity: 1; fill: rgb(51, 34, 136); fill-opacity: 0.6; stroke-width: 0; opacity: 1;"/><path class="sankey-link" d="M353,834.4644274040006C514.5,834.4644274040006 514.5,832.2995943095518 676,832.2995943095518L676,832.4827689806395C514.5,832.4827689806395 514.5,834.6476020750883 353,834.6476020750883Z" style="stroke: rgb(17, 119, 51); stroke-opacity: 0.6; fill: rgb(17, 119, 51); fill-opacity: 0.6; stroke-width: 1; opacity: 1;"/><path class="sankey-link" d="M696,63.965758048989194C857.5,63.965758048989194 857.5,538.9807152208792 1019,538.9807152208792L1019,545.9047177879987C857.5,545.9047177879987 857.5,70.88976061610867 696,70.88976061610867Z" style="stroke: rgb(68, 68, 68); stroke-opacity: 1; fill: rgb(17, 119, 51); fill-opacity: 0.6; stroke-width: 0; opacity: 1;"/><path class="sankey-link" d="M696,70.88976061610866C857.5,70.88976061610866 857.5,671.8633941384104 1019,671.8633941384104L1019,672.9990770991548C857.5,672.9990770991548 857.5,72.02544357685314 696,72.02544357685314Z" style="stroke: rgb(68, 68, 68); stroke-opacity: 1; fill: rgb(17, 119, 51); fill-opacity: 0.6; stroke-width: 0; opacity: 1;"/><path class="sankey-link" d="M696,72.02544357685312C857.5,72.02544357685312 857.5,770.3326014119157 1019,770.3326014119157L1019,770.808855556744C857.5,770.808855556744 857.5,72.50169772168144 696,72.50169772168144Z" style="stroke: rgb(17, 119, 51); stroke-opacity: 0.6; fill: rgb(17, 119, 51); fill-opacity: 0.6; stroke-width: 1; opacity: 1;"/><path class="sankey-link" d="M696,194.82295933254892C857.5,194.82295933254892 857.5,418.9699593325488 1019,418.9699593325488L1019,518.4704406674509C857.5,518.4704406674509 857.5,294.32344066745105 696,294.32344066745105Z" style="stroke: rgb(68, 68, 68); stroke-opacity: 1; fill: rgb(204, 102, 119); fill-opacity: 0.6; stroke-width: 0; opacity: 1;"/><path class="sankey-link" d="M696,552.6517165044387C857.5,552.6517165044387 857.5,545.9047177879987 1019,545.9047177879987L1019,636.6860847791207C857.5,636.6860847791207 857.5,643.4330834955607 696,643.4330834955607Z" style="stroke: rgb(68, 68, 68); stroke-opacity: 1; fill: rgb(68, 170, 153); fill-opacity: 0.6; stroke-width: 0; opacity: 1;"/><path class="sankey-link" d="M696,674.3500356187827C857.5,674.3500356187827 857.5,672.9990770991549 1019,672.9990770991549L1019,737.7330058615894C857.5,737.7330058615894 857.5,739.0839643812172 696,739.0839643812172Z" style="stroke: rgb(68, 68, 68); stroke-opacity: 1; fill: rgb(170, 68, 153); fill-opacity: 0.6; stroke-width: 0; opacity: 1;"/><path class="sankey-link" d="M696,771.1283284843299C857.5,771.1283284843299 857.5,770.808855556744 1019,770.808855556744L1019,796.9661985880844C857.5,796.9661985880844 857.5,797.2856715156703 696,797.2856715156703Z" style="stroke: rgb(68, 68, 68); stroke-opacity: 1; fill: rgb(51, 34, 136); fill-opacity: 0.6; stroke-width: 0; opacity: 1;"/><path class="sankey-link" d="M696,813.7460056904481C857.5,813.7460056904481 857.5,813.7542056904481 1019,813.7542056904481L1019,817.3077943095518C857.5,817.3077943095518 857.5,817.2995943095518 696,817.2995943095518Z" style="stroke: rgb(68, 68, 68); stroke-opacity: 1; fill: rgb(51, 34, 136); fill-opacity: 0.6; stroke-width: 0; opacity: 1;"/><path class="sankey-link" d="M696,832.2995943095518C857.5,832.2995943095518 857.5,832.3077943095518 1019,832.3077943095518L1019,832.4909689806395C857.5,832.4909689806395 857.5,832.4827689806395 696,832.4827689806395Z" style="stroke: rgb(17, 119, 51); stroke-opacity: 0.6; fill: rgb(17, 119, 51); fill-opacity: 0.6; stroke-width: 1; opacity: 1;"/><path class="sankey-link" d="M1039,418.9699593325488C1200.5,418.9699593325488 1200.5,536.9539278853351 1362,536.9539278853351L1362,537.1371025564229C1200.5,537.1371025564229 1200.5,419.15313400363664 1039,419.15313400363664Z" style="stroke: rgb(204, 102, 119); stroke-opacity: 0.6; fill: rgb(204, 102, 119); fill-opacity: 0.6; stroke-width: 1; opacity: 1;"/><path class="sankey-link" d="M1039,419.15313400363664C1200.5,419.15313400363664 1200.5,669.7200923949085 1362,669.7200923949085L1362,670.5626958819125C1200.5,670.5626958819125 1200.5,419.99573749064064 1039,419.99573749064064Z" style="stroke: rgb(204, 102, 119); stroke-opacity: 0.6; fill: rgb(204, 102, 119); fill-opacity: 0.6; stroke-width: 1; opacity: 1;"/><path class="sankey-link" d="M1039,419.9957374906406C1200.5,419.9957374906406 1200.5,769.3261219381752 1362,769.3261219381752L1362,769.9122808856562C1200.5,769.9122808856562 1200.5,420.58189643812165 1039,420.58189643812165Z" style="stroke: rgb(204, 102, 119); stroke-opacity: 0.6; fill: rgb(204, 102, 119); fill-opacity: 0.6; stroke-width: 1; opacity: 1;"/><path class="sankey-link" d="M1039,538.9807152208792C1200.5,538.9807152208792 1200.5,537.137102556423 1362,537.137102556423L1362,634.8424721146645C1200.5,634.8424721146645 1200.5,636.6860847791207 1039,636.6860847791207Z" style="stroke: rgb(68, 68, 68); stroke-opacity: 1; fill: rgb(68, 170, 153); fill-opacity: 0.6; stroke-width: 0; opacity: 1;"/><path class="sankey-link" d="M1039,671.8633941384104C1200.5,671.8633941384104 1200.5,670.5626958819125 1362,670.5626958819125L1362,736.4323076050914C1200.5,736.4323076050914 1200.5,737.7330058615893 1039,737.7330058615893Z" style="stroke: rgb(68, 68, 68); stroke-opacity: 1; fill: rgb(170, 68, 153); fill-opacity: 0.6; stroke-width: 0; opacity: 1;"/><path class="sankey-link" d="M1039,770.3326014119157C1200.5,770.3326014119157 1200.5,769.9122808856563 1362,769.9122808856563L1362,796.545878061825C1200.5,796.545878061825 1200.5,796.9661985880844 1039,796.9661985880844Z" style="stroke: rgb(68, 68, 68); stroke-opacity: 1; fill: rgb(51, 34, 136); fill-opacity: 0.6; stroke-width: 0; opacity: 1;"/><path class="sankey-link" d="M1039,813.7542056904481C1200.5,813.7542056904481 1200.5,813.7460056904481 1362,813.7460056904481L1362,817.2995943095518C1200.5,817.2995943095518 1200.5,817.3077943095518 1039,817.3077943095518Z" style="stroke: rgb(68, 68, 68); stroke-opacity: 1; fill: rgb(51, 34, 136); fill-opacity: 0.6; stroke-width: 0; opacity: 1;"/><path class="sankey-link" d="M1039,832.3077943095518C1200.5,832.3077943095518 1200.5,832.2995943095518 1362,832.2995943095518L1362,832.4827689806395C1200.5,832.4827689806395 1200.5,832.4909689806395 1039,832.4909689806395Z" style="stroke: rgb(17, 119, 51); stroke-opacity: 0.6; fill: rgb(17, 119, 51); fill-opacity: 0.6; stroke-width: 1; opacity: 1;"/><path class="sankey-link" d="M1382,669.7200923949085C1542.6425,669.7200923949085 1542.6425,654.250032687988 1703.285,654.250032687988L1703.285,720.9622478981709C1542.6425,720.9622478981709 1542.6425,736.4323076050914 1382,736.4323076050914Z" style="stroke: rgb(68, 68, 68); stroke-opacity: 1; fill: rgb(170, 68, 153); fill-opacity: 0.6; stroke-width: 0; opacity: 1;"/><path class="sankey-link" d="M1382,769.3261219381752C1542.6425,769.3261219381752 1542.6425,720.9622478981709 1703.285,720.9622478981709L1703.285,748.1820040218205C1542.6425,748.1820040218205 1542.6425,796.5458780618249 1382,796.5458780618249Z" style="stroke: rgb(68, 68, 68); stroke-opacity: 1; fill: rgb(51, 34, 136); fill-opacity: 0.6; stroke-width: 0; opacity: 1;"/><path class="sankey-link" d="M1382,813.7460056904481C1542.6425,813.7460056904481 1542.6425,748.1820040218205 1703.285,748.1820040218205L1703.285,751.7355926409242C1542.6425,751.7355926409242 1542.6425,817.2995943095518 1382,817.2995943095518Z" style="stroke: rgb(68, 68, 68); stroke-opacity: 1; fill: rgb(51, 34, 136); fill-opacity: 0.6; stroke-width: 0; opacity: 1;"/><path class="sankey-link" d="M1382,832.2995943095518C1542.6425,832.2995943095518 1542.6425,751.7355926409241 1703.285,751.7355926409241L1703.285,751.9187673120118C1542.6425,751.9187673120118 1542.6425,832.4827689806395 1382,832.4827689806395Z" style="stroke: rgb(17, 119, 51); stroke-opacity: 0.6; fill: rgb(17, 119, 51); fill-opacity: 0.6; stroke-width: 1; opacity: 1;"/></g><g class="sankey-node-set" style="cursor: move;"><g class="sankey-node" transform="translate(-8.285,0.000)" style="opacity: 1;"><rect class="node-rect" width="20" height="685.0000000000002" style="stroke-width: 0.5; stroke: rgb(0, 0, 0); stroke-opacity: 1; fill: rgb(68, 68, 68); fill-opacity: 1;"/><text class="node-label" data-notex="1" x="0" y="0" text-anchor="start" transform="translate(23.25,347.4000000000001)" style="cursor: default; font-family: 'Open Sans', verdana, arial, sans-serif; font-size: 14px; fill: rgb(42, 63, 95); fill-opacity: 1; white-space: pre; text-shadow: white 1px 1px 1px, white -1px -1px 1px, white 1px -1px 1px, white -1px 1px 1px;">Valid votes</text></g><g class="sankey-node" transform="translate(333.000,0.000)" style="opacity: 1;"><rect class="node-rect" width="20" height="140.7514172638784" style="stroke-width: 0.5; stroke: rgb(0, 0, 0); stroke-opacity: 1; fill: rgb(136, 34, 85); fill-opacity: 1;"/><text class="node-label" data-notex="1" x="0" y="0" text-anchor="start" transform="translate(23.25,66.1757086319392)" style="cursor: default; font-family: 'Open Sans', verdana, arial, sans-serif; font-size: 14px; fill: rgb(42, 63, 95); fill-opacity: 1; white-space: pre; text-shadow: white 1px 1px 1px, white -1px -1px 1px, white 1px -1px 1px, white -1px 1px 1px;"><tspan class="line" dy="0em" x="0" y="0">Walser, Nancy - 1: 3,842</tspan><tspan class="line" dy="1.3em" x="0" y="0">ELECTED</tspan></text></g><g class="sankey-node" transform="translate(333.000,155.751)" style="opacity: 1;"><rect class="node-rect" width="20" height="106.42448390202219" style="stroke-width: 0.5; stroke: rgb(0, 0, 0); stroke-opacity: 1; fill: rgb(17, 119, 51); fill-opacity: 1;"/><text class="node-label" data-notex="1" x="0" y="0" text-anchor="start" transform="translate(23.25,49.01224195101109)" style="cursor: default; font-family: 'Open Sans', verdana, arial, sans-serif; font-size: 14px; fill: rgb(42, 63, 95); fill-opacity: 1; white-space: pre; text-shadow: white 1px 1px 1px, white -1px -1px 1px, white 1px -1px 1px, white -1px 1px 1px;"><tspan class="line" dy="0em" x="0" y="0">Fantini, Alfred B. - 1: 2,905</tspan><tspan class="line" dy="1.3em" x="0" y="0">ELECTED</tspan></text></g><g class="sankey-node" transform="translate(333.000,277.176)" style="opacity: 1;"><rect class="node-rect" width="20" height="99.50048133490179" style="stroke-width: 0.5; stroke: rgb(0, 0, 0); stroke-opacity: 1; fill: rgb(204, 102, 119); fill-opacity: 1;"/><text class="node-label" data-notex="1" x="0" y="0" text-anchor="start" transform="translate(23.25,45.55024066745089)" style="cursor: default; font-family: 'Open Sans', verdana, arial, sans-serif; font-size: 14px; fill: rgb(42, 63, 95); fill-opacity: 1; white-space: pre; text-shadow: white 1px 1px 1px, white -1px -1px 1px, white 1px -1px 1px, white -1px 1px 1px;"><tspan class="line" dy="0em" x="0" y="0">McGovern, Marc C. - 1: 2,716</tspan><tspan class="line" dy="1.3em" x="0" y="0">ELECTED</tspan></text></g><g class="sankey-node" transform="translate(333.000,391.676)" style="opacity: 1;"><rect class="node-rect" width="20" height="95.39736870253546" style="stroke-width: 0.5; stroke: rgb(0, 0, 0); stroke-opacity: 1; fill: rgb(221, 204, 119); fill-opacity: 1;"/><text class="node-label" data-notex="1" x="0" y="0" text-anchor="start" transform="translate(23.25,52.59868435126773)" style="cursor: default; font-family: 'Open Sans', verdana, arial, sans-serif; font-size: 14px; fill: rgb(42, 63, 95); fill-opacity: 1; white-space: pre; text-shadow: white 1px 1px 1px, white -1px -1px 1px, white 1px -1px 1px, white -1px 1px 1px;">Lummis, Ben - 1: 2,604</text></g><g class="sankey-node" transform="translate(333.000,502.074)" style="opacity: 1;"><rect class="node-rect" width="20" height="86.53171462188476" style="stroke-width: 0.5; stroke: rgb(0, 0, 0); stroke-opacity: 1; fill: rgb(136, 204, 238); fill-opacity: 1;"/><text class="node-label" data-notex="1" x="0" y="0" text-anchor="start" transform="translate(23.25,48.16585731094238)" style="cursor: default; font-family: 'Open Sans', verdana, arial, sans-serif; font-size: 14px; fill: rgb(42, 63, 95); fill-opacity: 1; white-space: pre; text-shadow: white 1px 1px 1px, white -1px -1px 1px, white 1px -1px 1px, white -1px 1px 1px;">Harding, Richard, Jr. - 1: 2,362</text></g><g class="sankey-node" transform="translate(333.000,603.605)" style="opacity: 1;"><rect class="node-rect" width="20" height="84.0771740293078" style="stroke-width: 0.5; stroke: rgb(0, 0, 0); stroke-opacity: 1; fill: rgb(68, 170, 153); fill-opacity: 1;"/><text class="node-label" data-notex="1" x="0" y="0" text-anchor="start" transform="translate(23.25,46.9385870146539)" style="cursor: default; font-family: 'Open Sans', verdana, arial, sans-serif; font-size: 14px; fill: rgb(42, 63, 95); fill-opacity: 1; white-space: pre; text-shadow: white 1px 1px 1px, white -1px -1px 1px, white 1px -1px 1px, white -1px 1px 1px;">Grassi, Joseph G. - 1: 2,295</text></g><g class="sankey-node" transform="translate(333.000,709.602)" style="opacity: 1;"><rect class="node-rect" width="20" height="47.66204941705041" style="stroke-width: 0.5; stroke: rgb(0, 0, 0); stroke-opacity: 1; fill: rgb(170, 68, 153); fill-opacity: 1;"/><text class="node-label" data-notex="1" x="0" y="0" text-anchor="start" transform="translate(23.25,28.731024708525204)" style="cursor: default; font-family: 'Open Sans', verdana, arial, sans-serif; font-size: 14px; fill: rgb(42, 63, 95); fill-opacity: 1; white-space: pre; text-shadow: white 1px 1px 1px, white -1px -1px 1px, white 1px -1px 1px, white -1px 1px 1px;">Price, Alan C. - 1: 1,301</text></g><g class="sankey-node" transform="translate(333.000,779.992)" style="opacity: 1;"><rect class="node-rect" width="20" height="20.99181730666419" style="stroke-width: 0.5; stroke: rgb(0, 0, 0); stroke-opacity: 1; fill: rgb(51, 34, 136); fill-opacity: 1;"/><text class="node-label" data-notex="1" x="0" y="0" text-anchor="start" transform="translate(23.25,15.395908653332093)" style="cursor: default; font-family: 'Open Sans', verdana, arial, sans-serif; font-size: 14px; fill: rgb(42, 63, 95); fill-opacity: 1; white-space: pre; text-shadow: white 1px 1px 1px, white -1px -1px 1px, white 1px -1px 1px, white -1px 1px 1px;">Craig, Christopher - 1: 573</text></g><g class="sankey-node" transform="translate(333.000,815.984)" style="opacity: 1;"><rect class="node-rect" width="20" height="3.48031875066863" style="stroke-width: 0.5; stroke: rgb(0, 0, 0); stroke-opacity: 1; fill: rgb(51, 34, 136); fill-opacity: 1;"/><text class="node-label" data-notex="1" x="0" y="0" text-anchor="start" transform="translate(23.25,6.640159375334314)" style="cursor: default; font-family: 'Open Sans', verdana, arial, sans-serif; font-size: 14px; fill: rgb(42, 63, 95); fill-opacity: 1; white-space: pre; text-shadow: white 1px 1px 1px, white -1px -1px 1px, white 1px -1px 1px, white -1px 1px 1px;">Write-In P1 - 1: 95</text></g><g class="sankey-node" transform="translate(333.000,834.464)" style="opacity: 1;"><rect class="node-rect" width="20" height="0.5" style="stroke-width: 0.5; stroke: rgb(0, 0, 0); stroke-opacity: 1; fill: rgb(17, 119, 51); fill-opacity: 1;"/><text class="node-label" data-notex="1" x="0" y="0" text-anchor="start" transform="translate(23.25,5.1499999999999995)" style="cursor: default; font-family: 'Open Sans', verdana, arial, sans-serif; font-size: 14px; fill: rgb(42, 63, 95); fill-opacity: 1; white-space: pre; text-shadow: white 1px 1px 1px, white -1px -1px 1px, white 1px -1px 1px, white -1px 1px 1px;">Write-In Other - 1: 5</text></g><g class="sankey-node" transform="translate(676.000,63.966)" style="opacity: 1;"><rect class="node-rect" width="20" height="106.42448390202162" style="stroke-width: 0.5; stroke: rgb(0, 0, 0); stroke-opacity: 1; fill: rgb(17, 119, 51); fill-opacity: 1;"/><text class="node-label" data-notex="1" x="0" y="0" text-anchor="start" transform="translate(23.25,49.01224195101081)" style="cursor: default; font-family: 'Open Sans', verdana, arial, sans-serif; font-size: 14px; fill: rgb(42, 63, 95); fill-opacity: 1; white-space: pre; text-shadow: white 1px 1px 1px, white -1px -1px 1px, white 1px -1px 1px, white -1px 1px 1px;"><tspan class="line" dy="0em" x="0" y="0">Fantini, Alfred B. - 2: 2,905</tspan><tspan class="line" dy="1.3em" x="0" y="0">ELECTED</tspan></text></g><g class="sankey-node" transform="translate(676.000,194.823)" style="opacity: 1;"><rect class="node-rect" width="20" height="99.50048133490213" style="stroke-width: 0.5; stroke: rgb(0, 0, 0); stroke-opacity: 1; fill: rgb(204, 102, 119); fill-opacity: 1;"/><text class="node-label" data-notex="1" x="0" y="0" text-anchor="start" transform="translate(23.25,45.550240667451064)" style="cursor: default; font-family: 'Open Sans', verdana, arial, sans-serif; font-size: 14px; fill: rgb(42, 63, 95); fill-opacity: 1; white-space: pre; text-shadow: white 1px 1px 1px, white -1px -1px 1px, white 1px -1px 1px, white -1px 1px 1px;"><tspan class="line" dy="0em" x="0" y="0">McGovern, Marc C. - 2: 2,716</tspan><tspan class="line" dy="1.3em" x="0" y="0">ELECTED</tspan></text></g><g class="sankey-node" transform="translate(676.000,314.742)" style="opacity: 1;"><rect class="node-rect" width="20" height="97.88854422932957" style="stroke-width: 0.5; stroke: rgb(0, 0, 0); stroke-opacity: 1; fill: rgb(136, 204, 238); fill-opacity: 1;"/><text class="node-label" data-notex="1" x="0" y="0" text-anchor="start" transform="translate(23.25,44.74427211466478)" style="cursor: default; font-family: 'Open Sans', verdana, arial, sans-serif; font-size: 14px; fill: rgb(42, 63, 95); fill-opacity: 1; white-space: pre; text-shadow: white 1px 1px 1px, white -1px -1px 1px, white 1px -1px 1px, white -1px 1px 1px;"><tspan class="line" dy="0em" x="0" y="0">Harding, Richard, Jr. - 2: 2,672</tspan><tspan class="line" dy="1.3em" x="0" y="0">ELECTED</tspan></text></g><g class="sankey-node" transform="translate(676.000,431.920)" style="opacity: 1;"><rect class="node-rect" width="20" height="97.8885442293294" style="stroke-width: 0.5; stroke: rgb(0, 0, 0); stroke-opacity: 1; fill: rgb(221, 204, 119); fill-opacity: 1;"/><text class="node-label" data-notex="1" x="0" y="0" text-anchor="start" transform="translate(23.25,44.744272114664696)" style="cursor: default; font-family: 'Open Sans', verdana, arial, sans-serif; font-size: 14px; fill: rgb(42, 63, 95); fill-opacity: 1; white-space: pre; text-shadow: white 1px 1px 1px, white -1px -1px 1px, white 1px -1px 1px, white -1px 1px 1px;"><tspan class="line" dy="0em" x="0" y="0">Lummis, Ben - 2: 2,672</tspan><tspan class="line" dy="1.3em" x="0" y="0">ELECTED</tspan></text></g><g class="sankey-node" transform="translate(676.000,552.652)" style="opacity: 1;"><rect class="node-rect" width="20" height="90.78136699112247" style="stroke-width: 0.5; stroke: rgb(0, 0, 0); stroke-opacity: 1; fill: rgb(68, 170, 153); fill-opacity: 1;"/><text class="node-label" data-notex="1" x="0" y="0" text-anchor="start" transform="translate(23.25,50.29068349556123)" style="cursor: default; font-family: 'Open Sans', verdana, arial, sans-serif; font-size: 14px; fill: rgb(42, 63, 95); fill-opacity: 1; white-space: pre; text-shadow: white 1px 1px 1px, white -1px -1px 1px, white 1px -1px 1px, white -1px 1px 1px;">Grassi, Joseph G. - 2: 2,478</text></g><g class="sankey-node" transform="translate(676.000,674.350)" style="opacity: 1;"><rect class="node-rect" width="20" height="64.73392876243452" style="stroke-width: 0.5; stroke: rgb(0, 0, 0); stroke-opacity: 1; fill: rgb(170, 68, 153); fill-opacity: 1;"/><text class="node-label" data-notex="1" x="0" y="0" text-anchor="start" transform="translate(23.25,37.26696438121726)" style="cursor: default; font-family: 'Open Sans', verdana, arial, sans-serif; font-size: 14px; fill: rgb(42, 63, 95); fill-opacity: 1; white-space: pre; text-shadow: white 1px 1px 1px, white -1px -1px 1px, white 1px -1px 1px, white -1px 1px 1px;">Price, Alan C. - 2: 1,767</text></g><g class="sankey-node" transform="translate(676.000,771.128)" style="opacity: 1;"><rect class="node-rect" width="20" height="26.157343031340133" style="stroke-width: 0.5; stroke: rgb(0, 0, 0); stroke-opacity: 1; fill: rgb(51, 34, 136); fill-opacity: 1;"/><text class="node-label" data-notex="1" x="0" y="0" text-anchor="start" transform="translate(23.25,17.978671515670065)" style="cursor: default; font-family: 'Open Sans', verdana, arial, sans-serif; font-size: 14px; fill: rgb(42, 63, 95); fill-opacity: 1; white-space: pre; text-shadow: white 1px 1px 1px, white -1px -1px 1px, white 1px -1px 1px, white -1px 1px 1px;">Craig, Christopher - 2: 714</text></g><g class="sankey-node" transform="translate(676.000,813.746)" style="opacity: 1;"><rect class="node-rect" width="20" height="3.5535886191037207" style="stroke-width: 0.5; stroke: rgb(0, 0, 0); stroke-opacity: 1; fill: rgb(51, 34, 136); fill-opacity: 1;"/><text class="node-label" data-notex="1" x="0" y="0" text-anchor="start" transform="translate(23.25,6.67679430955186)" style="cursor: default; font-family: 'Open Sans', verdana, arial, sans-serif; font-size: 14px; fill: rgb(42, 63, 95); fill-opacity: 1; white-space: pre; text-shadow: white 1px 1px 1px, white -1px -1px 1px, white 1px -1px 1px, white -1px 1px 1px;">Write-In P1 - 2: 97</text></g><g class="sankey-node" transform="translate(676.000,832.300)" style="opacity: 1;"><rect class="node-rect" width="20" height="0.5" style="stroke-width: 0.5; stroke: rgb(0, 0, 0); stroke-opacity: 1; fill: rgb(17, 119, 51); fill-opacity: 1;"/><text class="node-label" data-notex="1" x="0" y="0" text-anchor="start" transform="translate(23.25,5.1499999999999995)" style="cursor: default; font-family: 'Open Sans', verdana, arial, sans-serif; font-size: 14px; fill: rgb(42, 63, 95); fill-opacity: 1; white-space: pre; text-shadow: white 1px 1px 1px, white -1px -1px 1px, white 1px -1px 1px, white -1px 1px 1px;">Write-In Other - 2: 5</text></g><g class="sankey-node" transform="translate(1019.000,418.970)" style="opacity: 1;"><rect class="node-rect" width="20" height="99.50048133490236" style="stroke-width: 0.5; stroke: rgb(0, 0, 0); stroke-opacity: 1; fill: rgb(204, 102, 119); fill-opacity: 1;"/><text class="node-label" data-notex="1" x="0" y="0" text-anchor="start" transform="translate(23.25,45.55024066745118)" style="cursor: default; font-family: 'Open Sans', verdana, arial, sans-serif; font-size: 14px; fill: rgb(42, 63, 95); fill-opacity: 1; white-space: pre; text-shadow: white 1px 1px 1px, white -1px -1px 1px, white 1px -1px 1px, white -1px 1px 1px;"><tspan class="line" dy="0em" x="0" y="0">McGovern, Marc C. - 3: 2,716</tspan><tspan class="line" dy="1.3em" x="0" y="0">ELECTED</tspan></text></g><g class="sankey-node" transform="translate(1019.000,538.981)" style="opacity: 1;"><rect class="node-rect" width="20" height="97.70536955824127" style="stroke-width: 0.5; stroke: rgb(0, 0, 0); stroke-opacity: 1; fill: rgb(68, 170, 153); fill-opacity: 1;"/><text class="node-label" data-notex="1" x="0" y="0" text-anchor="start" transform="translate(23.25,53.752684779120635)" style="cursor: default; font-family: 'Open Sans', verdana, arial, sans-serif; font-size: 14px; fill: rgb(42, 63, 95); fill-opacity: 1; white-space: pre; text-shadow: white 1px 1px 1px, white -1px -1px 1px, white 1px -1px 1px, white -1px 1px 1px;">Grassi, Joseph G. - 3: 2,667</text></g><g class="sankey-node" transform="translate(1019.000,671.863)" style="opacity: 1;"><rect class="node-rect" width="20" height="65.8696117231791" style="stroke-width: 0.5; stroke: rgb(0, 0, 0); stroke-opacity: 1; fill: rgb(170, 68, 153); fill-opacity: 1;"/><text class="node-label" data-notex="1" x="0" y="0" text-anchor="start" transform="translate(23.25,37.83480586158955)" style="cursor: default; font-family: 'Open Sans', verdana, arial, sans-serif; font-size: 14px; fill: rgb(42, 63, 95); fill-opacity: 1; white-space: pre; text-shadow: white 1px 1px 1px, white -1px -1px 1px, white 1px -1px 1px, white -1px 1px 1px;">Price, Alan C. - 3: 1,798</text></g><g class="sankey-node" transform="translate(1019.000,770.333)" style="opacity: 1;"><rect class="node-rect" width="20" height="26.63359717616845" style="stroke-width: 0.5; stroke: rgb(0, 0, 0); stroke-opacity: 1; fill: rgb(51, 34, 136); fill-opacity: 1;"/><text class="node-label" data-notex="1" x="0" y="0" text-anchor="start" transform="translate(23.25,18.216798588084224)" style="cursor: default; font-family: 'Open Sans', verdana, arial, sans-serif; font-size: 14px; fill: rgb(42, 63, 95); fill-opacity: 1; white-space: pre; text-shadow: white 1px 1px 1px, white -1px -1px 1px, white 1px -1px 1px, white -1px 1px 1px;">Craig, Christopher - 3: 727</text></g><g class="sankey-node" transform="translate(1019.000,813.754)" style="opacity: 1;"><rect class="node-rect" width="20" height="3.5535886191037207" style="stroke-width: 0.5; stroke: rgb(0, 0, 0); stroke-opacity: 1; fill: rgb(51, 34, 136); fill-opacity: 1;"/><text class="node-label" data-notex="1" x="0" y="0" text-anchor="start" transform="translate(23.25,6.67679430955186)" style="cursor: default; font-family: 'Open Sans', verdana, arial, sans-serif; font-size: 14px; fill: rgb(42, 63, 95); fill-opacity: 1; white-space: pre; text-shadow: white 1px 1px 1px, white -1px -1px 1px, white 1px -1px 1px, white -1px 1px 1px;">Write-In P1 - 3: 97</text></g><g class="sankey-node" transform="translate(1019.000,832.308)" style="opacity: 1;"><rect class="node-rect" width="20" height="0.5" style="stroke-width: 0.5; stroke: rgb(0, 0, 0); stroke-opacity: 1; fill: rgb(17, 119, 51); fill-opacity: 1;"/><text class="node-label" data-notex="1" x="0" y="0" text-anchor="start" transform="translate(23.25,5.1499999999999995)" style="cursor: default; font-family: 'Open Sans', verdana, arial, sans-serif; font-size: 14px; fill: rgb(42, 63, 95); fill-opacity: 1; white-space: pre; text-shadow: white 1px 1px 1px, white -1px -1px 1px, white 1px -1px 1px, white -1px 1px 1px;">Write-In Other - 3: 5</text></g><g class="sankey-node" transform="translate(1362.000,536.954)" style="opacity: 1;"><rect class="node-rect" width="20" height="97.88854422932968" style="stroke-width: 0.5; stroke: rgb(0, 0, 0); stroke-opacity: 1; fill: rgb(68, 170, 153); fill-opacity: 1;"/><text class="node-label" data-notex="1" x="0" y="0" text-anchor="start" transform="translate(23.25,44.74427211466484)" style="cursor: default; font-family: 'Open Sans', verdana, arial, sans-serif; font-size: 14px; fill: rgb(42, 63, 95); fill-opacity: 1; white-space: pre; text-shadow: white 1px 1px 1px, white -1px -1px 1px, white 1px -1px 1px, white -1px 1px 1px;"><tspan class="line" dy="0em" x="0" y="0">Grassi, Joseph G. - 4: 2,672</tspan><tspan class="line" dy="1.3em" x="0" y="0">ELECTED</tspan></text></g><g class="sankey-node" transform="translate(1362.000,669.720)" style="opacity: 1;"><rect class="node-rect" width="20" height="66.71221521018288" style="stroke-width: 0.5; stroke: rgb(0, 0, 0); stroke-opacity: 1; fill: rgb(170, 68, 153); fill-opacity: 1;"/><text class="node-label" data-notex="1" x="0" y="0" text-anchor="start" transform="translate(23.25,38.25610760509144)" style="cursor: default; font-family: 'Open Sans', verdana, arial, sans-serif; font-size: 14px; fill: rgb(42, 63, 95); fill-opacity: 1; white-space: pre; text-shadow: white 1px 1px 1px, white -1px -1px 1px, white 1px -1px 1px, white -1px 1px 1px;">Price, Alan C. - 4: 1,821</text></g><g class="sankey-node" transform="translate(1362.000,769.326)" style="opacity: 1;"><rect class="node-rect" width="20" height="27.21975612364963" style="stroke-width: 0.5; stroke: rgb(0, 0, 0); stroke-opacity: 1; fill: rgb(51, 34, 136); fill-opacity: 1;"/><text class="node-label" data-notex="1" x="0" y="0" text-anchor="start" transform="translate(23.25,18.509878061824814)" style="cursor: default; font-family: 'Open Sans', verdana, arial, sans-serif; font-size: 14px; fill: rgb(42, 63, 95); fill-opacity: 1; white-space: pre; text-shadow: white 1px 1px 1px, white -1px -1px 1px, white 1px -1px 1px, white -1px 1px 1px;">Craig, Christopher - 4: 743</text></g><g class="sankey-node" transform="translate(1362.000,813.746)" style="opacity: 1;"><rect class="node-rect" width="20" height="3.5535886191037207" style="stroke-width: 0.5; stroke: rgb(0, 0, 0); stroke-opacity: 1; fill: rgb(51, 34, 136); fill-opacity: 1;"/><text class="node-label" data-notex="1" x="0" y="0" text-anchor="start" transform="translate(23.25,6.67679430955186)" style="cursor: default; font-family: 'Open Sans', verdana, arial, sans-serif; font-size: 14px; fill: rgb(42, 63, 95); fill-opacity: 1; white-space: pre; text-shadow: white 1px 1px 1px, white -1px -1px 1px, white 1px -1px 1px, white -1px 1px 1px;">Write-In P1 - 4: 97</text></g><g class="sankey-node" transform="translate(1362.000,832.300)" style="opacity: 1;"><rect class="node-rect" width="20" height="0.5" style="stroke-width: 0.5; stroke: rgb(0, 0, 0); stroke-opacity: 1; fill: rgb(17, 119, 51); fill-opacity: 1;"/><text class="node-label" data-notex="1" x="0" y="0" text-anchor="start" transform="translate(23.25,5.1499999999999995)" style="cursor: default; font-family: 'Open Sans', verdana, arial, sans-serif; font-size: 14px; fill: rgb(42, 63, 95); fill-opacity: 1; white-space: pre; text-shadow: white 1px 1px 1px, white -1px -1px 1px, white 1px -1px 1px, white -1px 1px 1px;">Write-In Other - 4: 5</text></g><g class="sankey-node" transform="translate(1703.285,654.250)" style="opacity: 1;"><rect class="node-rect" width="20" height="97.66873462402395" style="stroke-width: 0.5; stroke: rgb(0, 0, 0); stroke-opacity: 1; fill: rgb(68, 68, 68); fill-opacity: 1;"/><text class="node-label" data-notex="1" x="0" y="0" text-anchor="end" transform="translate(-3.25,53.734367312011976)" style="cursor: default; font-family: 'Open Sans', verdana, arial, sans-serif; font-size: 14px; fill: rgb(42, 63, 95); fill-opacity: 1; white-space: pre; text-shadow: white 1px 1px 1px, white -1px -1px 1px, white 1px -1px 1px, white -1px 1px 1px;">Exhausted - 5: 2,666</text></g></g></g><defs id="topdefs-3e7e5b"><g class="clips"/></defs><g class="layer-above"><g class="imagelayer"/><g class="shapelayer"/></g><g class="infolayer"><g class="g-gtitle"><text class="gtitle" x="93.75" y="50" text-anchor="start" dy="0em" style="font-family: 'Open Sans', verdana, arial, sans-serif; font-size: 20px; fill: rgb(42, 63, 95); opacity: 1; font-weight: normal; white-space: pre;">Cambridge, MA School Committee Election - 2003</text></g><g class="first-render"/></g></svg>